<svg width="174" height="229" viewBox="0 0 174 229" fill="none" xmlns="http://www.w3.org/2000/svg">
    <g clip-path="url(#clip0_23_442)">
        <path d="M87.67 51.22C94.5075 55.3109 100.562 60.5865 105.55 66.8C108.633 70.7373 111.504 74.8364 114.15 79.08C114.15 79.08 115.22 55.48 119.39 53.54C123.56 51.6 129.65 51.92 131.73 55.25C133.81 58.58 134.8 94.64 122.73 99.08C110.66 103.52 91.73 85.13 86.63 69.65C85.05 64.76 87.67 51.22 87.67 51.22Z" fill="#FFCACA"/>
        <path d="M69.43 35.27C69.9571 34.9823 70.4009 34.5632 70.718 34.0533C71.0352 33.5433 71.215 32.96 71.24 32.36C71.2328 31.8601 71.1243 31.3669 70.9212 30.91C70.718 30.4532 70.4244 30.0423 70.0581 29.7021C69.6917 29.3619 69.2602 29.0995 68.7896 28.9307C68.319 28.7619 67.8191 28.6902 67.32 28.72C65.25 28.83 64.32 30.08 63.66 30.05C63 30.02 63.95 31.05 63.95 31.05C63.0064 31.4395 62.187 32.0792 61.58 32.9C60.43 34.37 60.27 37.37 60.74 39.08C61.21 40.79 62.48 44.53 63.74 44.43C65 44.33 70.01 36.84 69.43 35.27Z" fill="#311E69"/>
        <path d="M120.47 54.79C120.097 54.1182 119.954 53.3426 120.065 52.5821C120.175 51.8215 120.531 51.1182 121.08 50.58C122.47 49.1 133.76 45.72 135.89 46.97C138.02 48.22 126.96 55.97 124.79 56.27C122.62 56.57 121.09 55.75 120.47 54.79Z" fill="#AD263D"/>
        <path d="M150.67 10.04L150.5 4.79999L93.39 4.70999L93.2 10.25C92.4498 11.5003 92.0556 12.9319 92.06 14.39V40.39C92.06 45.79 95.11 49.1 99.72 51.08C106.77 54.08 137.25 54.5 144.3 51.45C148.9 49.45 151.94 46.16 151.94 40.77V14.39C151.945 12.8479 151.504 11.3373 150.67 10.04Z" fill="#9E6351"/>
        <path d="M107.02 32.32C107.02 32.32 109.93 23.59 117.64 20.79C125.35 17.99 134.17 20.17 136.17 23.9C138.17 27.63 131.83 31.25 125.17 30.69C118.51 30.13 113.67 32.83 112.67 34.16C111.67 35.49 105.67 37.88 107.02 32.32Z" fill="#EAC178"/>
        <path d="M143 31.77C143 31.77 139.74 40.38 131.93 42.88C124.12 45.38 115.38 42.83 113.54 39.03C111.7 35.23 118.17 31.86 124.78 32.68C131.39 33.5 136.34 31 137.46 29.68C138.58 28.36 144.55 26.27 143 31.77Z" fill="#EAC178"/>
        <g style="mix-blend-mode:multiply">
            <path d="M150.54 4.79999H130.91V13.88C130.91 13.88 132.91 13.62 134.58 17.88C136.25 22.14 134.84 41.15 131.58 45.88C129.13 49.5 106.32 50.37 100.71 49.45C98.95 49.16 97.22 48.86 95.71 48.58C96.9094 49.6002 98.2585 50.4299 99.71 51.04C106.76 54.04 137.24 54.46 144.29 51.41C148.89 49.41 151.93 46.12 151.93 40.73V14.39C151.935 12.8479 151.494 11.3373 150.66 10.04L150.54 4.79999Z" fill="#E5B4A8"/>
        </g>
        <path d="M121.98 9.44C137.753 9.44 150.54 7.32678 150.54 4.72C150.54 2.11322 137.753 0 121.98 0C106.207 0 93.42 2.11322 93.42 4.72C93.42 7.32678 106.207 9.44 121.98 9.44Z" fill="#774438"/>
        <path d="M136.88 4.20002C132.44 3.33002 124.94 2.97001 113.23 3.84001C101.52 4.71001 98.23 6.96 98.23 6.96C106.106 8.16409 114.054 8.83229 122.02 8.96C130.9 8.96 138.88 8.37002 144.12 7.32002C144.87 5.97002 141.32 5.07002 136.88 4.20002Z" fill="#EAC178"/>
        <path d="M121.99 0.919998C128.516 0.864143 135.037 1.292 141.5 2.20001C143.535 2.48586 145.542 2.94418 147.5 3.57001C149.13 4.15001 149.5 4.56999 149.58 4.70999C149.66 4.84999 149.13 5.28001 147.5 5.85001C145.544 6.48456 143.536 6.94634 141.5 7.23001C128.556 8.93409 115.444 8.93409 102.5 7.23001C100.463 6.94634 98.4558 6.48456 96.5 5.85001C94.87 5.28001 94.5 4.84999 94.42 4.70999C94.34 4.56999 94.87 4.15001 96.5 3.57001C98.4576 2.94418 100.465 2.48586 102.5 2.20001C108.966 1.29169 115.491 0.863833 122.02 0.919998H121.99ZM121.99 0C106.21 0 93.43 2.10999 93.43 4.70999C93.43 7.30999 106.21 9.42999 121.99 9.42999C137.77 9.42999 150.54 7.31999 150.54 4.70999C150.54 2.09999 137.76 0 121.99 0Z" fill="#C47969"/>
        <path style="mix-blend-mode:color-dodge" d="M93.75 11.86C98.8226 13.0532 103.977 13.8688 109.17 14.3C109.17 14.3 105.9 19.15 105.03 28.8C104.19 38.14 107.48 50.74 107.48 50.74C107.48 50.74 98.8 51.01 96.1 47.23C93.4 43.45 93.49 40.23 93.43 36.56C93.35 32.17 92.79 15.73 93.75 11.86Z" fill="url(#paint0_linear_23_442)"/>
        <path d="M75.01 223.25C75.9342 221.702 76.444 219.942 76.49 218.14L82.14 218C81.967 219.188 82.1995 220.4 82.8 221.44C83.23 222.09 84.45 222.56 86.14 223.22C88.83 224.52 92.14 226.22 92.27 227.09C92.5 228.6 76.9 228.93 74.27 227.53C72.89 226.8 73.8 225.14 75.01 223.25Z" fill="#311E69"/>
        <path d="M89.74 95.33C89.74 95.33 100.11 132.63 99.67 152.81C99.26 171.81 94.74 215.81 82.91 219.06C79.57 219.97 74.86 220.6 73.58 218C70.3 211.37 82.42 170.81 80.84 154.71C79.44 140.36 60.67 102.86 67.7 98.09C74.73 93.32 89.74 95.33 89.74 95.33Z" fill="#1E1240"/>
        <path d="M26.67 191.42C28.5984 191.45 30.5024 190.985 32.2 190.07L35.34 195.24C34.1447 195.704 33.1429 196.561 32.5 197.67C32.12 198.42 32.35 199.81 32.63 201.73C32.86 204.9 33.08 208.86 32.31 209.47C31.04 210.47 22.41 196.2 22.31 193.01C22.28 191.35 24.31 191.3 26.67 191.42Z" fill="#311E69"/>
        <path d="M61.38 96.23C61.38 96.23 54.62 102.37 53.14 106.66C45.34 129.23 54.14 145.46 53.47 165.86C53.11 176.06 27.71 187 28.89 190.72C29.52 192.72 31.89 198.72 35 198.63C38.9 198.47 62.05 196.37 70.54 171.97C77.07 153.23 76.43 126.85 77.03 122.78C78.36 113.78 79.49 100.63 79.49 100.63L61.38 96.23Z" fill="#1E1240"/>
        <path d="M48.01 121.39C43.42 115.66 43.76 107.23 45.46 88.39C46.62 75.45 39.28 58.5 49.81 52.18C59.97 46.08 79.22 44.08 87.7 51.24C92.13 54.97 91.32 66.55 92.1 78.24C93.19 94.46 94.75 111.59 94.21 114.33C93.39 118.5 49.49 123.24 48.01 121.39Z" fill="#FFF8F8"/>
        <path d="M63.52 38.67C62.98 40.89 62.43 45.18 62.21 47.03C62.178 47.3042 62.2239 47.5819 62.3424 47.8313C62.4608 48.0807 62.6472 48.2916 62.88 48.44C67.33 51.3 70.44 48.79 69.81 47.6L67.87 41.31C67.87 41.31 63.67 38 63.52 38.67Z" fill="#FF6161"/>
        <path d="M89.17 75.56C90.24 73.92 91.17 72.31 92.02 70.75C94.1569 66.8064 96.0797 62.7506 97.78 58.6C97.26 58.13 96.78 57.69 96.22 57.26C94.4949 61.569 92.5182 65.7729 90.3 69.85C89.68 71.03 88.96 72.26 88.17 73.51C88.48 74.19 88.82 74.88 89.17 75.56Z" fill="#311E69"/>
        <path d="M132.53 77.12C124.95 75.86 118.05 74.27 114.53 73.43C114.25 76.72 114.14 79.08 114.14 79.08C114.14 79.08 113.8 78.52 113.14 77.53C113.73 80.08 114.42 83.58 115.14 88.39C115.651 92.0571 115.882 95.7578 115.83 99.46C116.49 99.5913 117.158 99.6781 117.83 99.72C117.881 95.8341 117.64 91.9499 117.11 88.1C116.2 82.21 115.36 78.19 114.66 75.46C118.35 76.36 124.98 77.87 132.26 79.08C132.38 78.43 132.46 77.78 132.53 77.12Z" fill="#311E69"/>
        <path d="M110.42 73.37L109.12 71.53C108.12 73.87 106.61 76.94 104.5 80.95C102.944 83.8164 101.193 86.5728 99.26 89.2C99.72 89.67 100.19 90.13 100.67 90.57C102.725 87.7969 104.583 84.8831 106.23 81.85C108.04 78.4 109.4 75.62 110.42 73.37Z" fill="#311E69"/>
        <path d="M116.52 59.6C120.77 60.86 126.71 62.5 132.97 63.87C132.97 63.16 132.91 62.48 132.87 61.87C126.87 60.54 121.13 58.96 117.03 57.75C116.85 58.3167 116.68 58.9333 116.52 59.6Z" fill="#311E69"/>
        <path d="M64.31 35.5L63.31 40.69C63.2131 41.5249 63.4464 42.3647 63.9602 43.0299C64.4741 43.695 65.2277 44.1329 66.06 44.25C67.3789 44.4341 68.7223 44.3179 69.99 43.91C71.4 43.56 71.99 42.1 71.72 40.23C71.4343 38.2399 70.805 36.3146 69.86 34.54C68.54 31.95 65.22 32.12 64.31 35.5Z" fill="#FF6161"/>
        <path d="M63.31 40.65L64.31 35.46C64.4084 35.0822 64.5564 34.719 64.75 34.38C64.7649 35.5702 64.9779 36.7497 65.38 37.87C66.19 38.72 66.03 37.87 67.7 37.61C68.9004 37.5264 70.1061 37.6585 71.26 38C71.4738 38.716 71.6276 39.4485 71.72 40.19C71.96 42.06 71.4 43.52 69.99 43.87C68.7223 44.2779 67.3789 44.3941 66.06 44.21C65.2277 44.0929 64.4741 43.655 63.9602 42.9898C63.4464 42.3247 63.2131 41.4849 63.31 40.65Z" fill="#311E69"/>
        <path d="M67.76 38.72C68.719 38.7859 69.6822 38.6912 70.61 38.44C70.61 38.44 70.79 39.52 70.18 39.98C69.57 40.44 68.31 39.96 67.76 38.72Z" fill="white"/>
        <path d="M70.2 41.96C68.57 41.84 67.66 44.41 64.54 42.48C63.96 41.9619 63.5402 41.2888 63.33 40.54V40.65C63.2331 41.4849 63.4664 42.3247 63.9803 42.9898C64.4941 43.655 65.2477 44.0929 66.08 44.21C67.3989 44.3941 68.7423 44.2779 70.01 43.87C70.4172 43.766 70.7869 43.5496 71.0769 43.2454C71.3669 42.9413 71.5655 42.5617 71.65 42.15C71.1617 42.1334 70.6761 42.0697 70.2 41.96Z" fill="#1E1240"/>
        <path d="M64.67 37.5C64.5617 37.1759 64.4913 36.8403 64.46 36.5C64.38 35.88 64.12 34.98 63.26 35.55C62.01 36.37 62.37 39.38 63.93 39.44C65.12 39.5 64.97 38.24 64.67 37.5Z" fill="#FF6161"/>
        <path d="M90.86 58.5L89.43 76.06C91.3888 79.6838 93.7359 83.0838 96.43 86.2C96.43 86.2 95.78 76.83 95.19 73.76C94.47 69.84 90.86 58.5 90.86 58.5Z" fill="#311E69"/>
        <path d="M44.67 73.98C45.21 78.85 45.84 83.85 45.44 88.37C45.35 89.37 45.27 90.29 45.19 91.21C47.43 88.32 50.05 84.04 50.41 79.43C51.05 71.17 49.91 66.43 49.91 66.43L44.67 73.98Z" fill="#311E69"/>
        <path d="M87.67 51.22C85.1008 49.2075 82.0686 47.8701 78.85 47.33C80.03 52.22 83.97 68.82 84.91 75.49C86.02 83.35 81.76 107.49 82.5 114.08C82.6613 115.474 82.9526 116.85 83.37 118.19C89.44 116.99 93.92 115.63 94.18 114.34C94.72 111.6 93.18 94.47 92.07 78.25C91.32 66.5 92.13 54.95 87.67 51.22Z" fill="#FFCACA"/>
        <path d="M79.31 53.42C70.31 55.05 57.04 54.42 47.82 53.67C47.2424 54.2202 46.7291 54.8341 46.29 55.5C51.46 55.96 58.14 56.4 64.75 56.4C69.7448 56.4719 74.7366 56.1139 79.67 55.33C83.72 54.6 86.87 53.92 89.33 53.33C89.0147 52.705 88.6104 52.1291 88.13 51.62C85.84 52.15 82.95 52.76 79.31 53.42Z" fill="#311E69"/>
        <path d="M79.31 71.44C69.11 73.29 53.48 72.25 44.41 71.39L44.62 73.39C49.96 73.89 57.4 74.44 64.75 74.44C69.7454 74.5057 74.7372 74.141 79.67 73.35C85.2 72.35 89.06 71.46 91.76 70.71C91.76 70.04 91.71 69.37 91.68 68.71C89.08 69.5 85.17 70.38 79.31 71.44Z" fill="#311E69"/>
        <path d="M79.31 89.5C69.46 91.28 54.53 90.38 45.36 89.5C45.3 90.16 45.24 90.82 45.18 91.45C50.48 91.94 57.66 92.45 64.75 92.45C69.7448 92.5219 74.7366 92.164 79.67 91.38C84.1109 90.6183 88.5074 89.6169 92.84 88.38L92.69 86.38C88.2909 87.6658 83.8241 88.7074 79.31 89.5Z" fill="#311E69"/>
        <path d="M93.95 104.06C89.159 105.557 84.2663 106.707 79.31 107.5C69.07 109.35 53.36 108.3 44.31 107.44C44.31 108.12 44.31 108.78 44.36 109.44C49.71 109.95 57.28 110.52 64.75 110.52C69.7463 110.576 74.7381 110.201 79.67 109.4C84.5417 108.605 89.3555 107.49 94.08 106.06C94.03 105.42 93.99 104.75 93.95 104.06Z" fill="#311E69"/>
        <path d="M46.93 54.63L20.24 81.12C20.24 81.12 27.55 51.69 26.16 47.62C24.77 43.55 15.52 39.85 11.44 46.62C7.36 53.39 -3.50999 96.78 9.73001 105.29C26.3 115.93 47.13 82.43 49.73 72.8C52.33 63.17 46.93 54.63 46.93 54.63Z" fill="#FFF8F8"/>
        <path d="M18.06 45.12C16.8735 43.3912 15.8681 41.5448 15.06 39.61C14.16 37.16 13.67 34.1 16.57 34.66C19.47 35.22 21.26 40.09 21.8 40.72C22.34 41.35 23.8 42.72 23.88 44.15C23.96 45.58 23.51 48.4 21.61 48.68C19.71 48.96 17.88 48.4 18.06 45.12Z" fill="#FF6161"/>
        <path d="M49.72 72.84C50.5483 69.6673 50.6542 66.3491 50.03 63.13C47.15 68.01 39.44 80.93 35.23 86.45C30 93.32 27.18 97.45 19.68 97.32C12.18 97.19 7.68002 93.9 6.43002 87.79C5.77002 84.64 4.72001 80.68 3.85001 77.59C2.61001 89.59 3.50001 101.32 9.73001 105.33C26.3 115.97 47.13 82.5 49.72 72.84Z" fill="#FFCACA"/>
        <path d="M2.04001 30.66C2.04001 30.66 -3.32997 21.95 3.37003 19.08C10.07 16.21 14.76 24.37 21.85 23.62C28.94 22.87 34.43 15.11 42.41 18.87C50.39 22.63 46.15 37.87 33.22 40.4C20.29 42.93 7.10001 39.75 2.04001 30.66Z" fill="#FFCA76"/>
        <path d="M23.67 43.34C23.67 43.34 22.94 38.6 22.75 37.34C22.56 36.08 21.21 36.91 20.97 38.12C20.73 39.33 19.97 41.94 21.21 43.35C21.3566 43.5364 21.5439 43.6869 21.7574 43.7901C21.971 43.8933 22.2052 43.9464 22.4424 43.9455C22.6796 43.9445 22.9135 43.8895 23.1262 43.7845C23.3389 43.6796 23.5249 43.5276 23.67 43.34Z" fill="#FF6161"/>
        <path d="M10.26 97.67C13.5759 93.934 16.5636 89.9192 19.19 85.67C21.05 82.51 22.49 79.91 23.59 77.79L20.24 81.11C20.24 81.11 20.44 80.32 20.76 78.98C19.86 80.62 18.76 82.51 17.51 84.68C14.0246 90.1696 10.0051 95.3013 5.50999 100C5.79037 100.641 6.10758 101.265 6.46001 101.87C7.77001 100.5 9.02999 99.1 10.26 97.67Z" fill="#311E69"/>
        <path d="M7.46001 77.42C12.112 77.354 16.7564 77.0201 21.37 76.42C21.51 75.79 21.67 75.11 21.84 74.42C17.0585 75.0922 12.2383 75.4529 7.40999 75.5C6.34999 75.5 5.24001 75.5 4.09001 75.5C4.01001 76.15 3.93001 76.79 3.87001 77.44C5.11001 77.44 6.31001 77.5 7.46001 77.42Z" fill="#311E69"/>
        <path d="M30.81 70.63L28.86 72.56C28.91 77.73 29.11 84.37 29.74 90.88C30.06 94.2 30.49 97.49 31.07 100.53C31.64 100.02 32.21 99.53 32.76 98.96C31.16 89.59 30.83 78.04 30.81 70.63Z" fill="#311E69"/>
        <path d="M19.53 62.88C21.31 62.8 22.93 62.71 24.39 62.61C24.53 61.95 24.65 61.29 24.78 60.61C23.2 60.72 21.43 60.82 19.44 60.91C15.2455 61.0218 11.0488 60.7977 6.89 60.24C6.73 60.87 6.58001 61.51 6.43001 62.16C10.7703 62.7504 15.1511 62.9912 19.53 62.88Z" fill="#311E69"/>
        <path d="M37.32 64.17L35.83 65.64C37.74 69.88 40.09 74.8 42.68 79.54C43.37 80.81 44.09 82.07 44.81 83.3C45.21 82.64 45.58 81.99 45.93 81.35C42.67 75.65 39.67 69.34 37.32 64.17Z" fill="#311E69"/>
        <path d="M123.14 108.87V114.78L173.67 113.17V107.39L123.14 108.87Z" fill="#FFCACA"/>
        <path d="M167.76 209.27L173.67 115.43V113.17L123.14 114.78L132.62 209.6H167.76V209.27Z" fill="#FFE3E3"/>
        <path d="M132.67 209.6V220.91C132.669 221.739 132.945 222.544 133.454 223.198C133.964 223.852 134.676 224.317 135.48 224.52C140.7 225.84 152.48 227.99 165.06 224.52C165.849 224.307 166.546 223.84 167.043 223.191C167.54 222.542 167.81 221.747 167.81 220.93V209.6H132.67Z" fill="#FFCACA"/>
        <path d="M154.877 129.815L144.09 130.048L145.551 197.573L156.339 197.339L154.877 129.815Z" fill="white"/>
        <g style="mix-blend-mode:multiply">
            <path d="M150.19 152.28C150.85 155.77 150.37 193.14 150.13 209.6H167.76V209.27L173.67 115.43V113.16L151.26 113.88C150.67 126.21 149.58 149.03 150.19 152.28Z" fill="#FFE7E6"/>
        </g>
        <g style="mix-blend-mode:multiply">
            <path d="M165.01 224.55C165.799 224.337 166.496 223.87 166.993 223.221C167.49 222.572 167.76 221.777 167.76 220.96V209.6H150.13V226.4C155.152 226.475 160.159 225.852 165.01 224.55Z" fill="#FFE7E6"/>
        </g>
    </g>
    <defs>
        <linearGradient id="paint0_linear_23_442" x1="93.2" y1="31.3" x2="109.17" y2="31.3" gradientUnits="userSpaceOnUse">
            <stop stop-color="#4D4D4D"/>
            <stop offset="1"/>
        </linearGradient>
        <clipPath id="clip0_23_442">
            <rect width="173.67" height="228.42" fill="white"/>
        </clipPath>
    </defs>
</svg>
