<svg width="22" height="25" viewBox="0 0 22 25" fill="none" xmlns="http://www.w3.org/2000/svg">
    <path d="M12.5757 22.8306L11.4917 24.0636C11.0327 24.5857 10.2905 24.5857 9.83643 24.0636L0.344238 13.2718C-0.114746 12.7497 -0.114746 11.9055 0.344238 11.3889L9.83643 0.591583C10.2954 0.0694885 11.0376 0.0694885 11.4917 0.591583L12.5757 1.82462C13.0395 2.35226 13.0298 3.21316 12.5562 3.7297L6.67236 10.1059H20.7056C21.355 10.1059 21.8774 10.7002 21.8774 11.4389V13.2163C21.8774 13.955 21.355 14.5493 20.7056 14.5493H6.67236L12.5562 20.9255C13.0347 21.442 13.0444 22.3029 12.5757 22.8306Z" fill="#FFA0A0"/>
</svg>
