<?xml version="1.0" encoding="iso-8859-1"?>
<!-- Generator: Adobe Illustrator 19.0.0, SVG Export Plug-In . SVG Version: 6.00 Build 0)  -->
<svg version="1.1" id="Layer_1" xmlns="http://www.w3.org/2000/svg" xmlns:xlink="http://www.w3.org/1999/xlink" x="0px" y="0px"
	 viewBox="0 0 512 512" style="enable-background:new 0 0 512 512;" xml:space="preserve">
<g>
	<g>
		<path d="M437.019,74.982C388.667,26.628,324.379,0,256,0S123.333,26.628,74.981,74.982C26.628,123.333,0,187.621,0,256
			s26.628,132.667,74.981,181.019C123.333,485.372,187.621,512,256,512s132.667-26.628,181.019-74.982
			C485.372,388.667,512,324.379,512,256S485.372,123.333,437.019,74.982z M256,495.832C123.756,495.832,16.168,388.244,16.168,256
			S123.756,16.168,256,16.168S495.832,123.756,495.832,256S388.244,495.832,256,495.832z"/>
	</g>
</g>
<g>
	<g>
		<path d="M423.041,227.589l-23.786-95.145c-2.853-11.409-11.712-20.269-23.122-23.121l-95.145-23.786
			c-10.766-2.689-22.33,0.512-30.177,8.359L79.354,265.356c-5.82,5.82-9.469,13.57-9.757,21.795
			c-0.312,8.913,3.016,17.343,9.287,23.615l118.931,118.931c6.195,6.195,14.332,9.291,22.47,9.291c8.137,0,16.275-3.097,22.47-9.291
			l43.215-43.215c3.126-3.126,3.126-8.193,0-11.319l-0.114-0.114c-3.126-3.126-8.193-3.126-11.319,0l-43.215,43.215
			c-6.087,6.086-15.988,6.086-22.074,0L90.317,299.331c-2.948-2.947-4.571-6.867-4.571-11.035c0-4.169,1.623-8.09,4.571-11.037
			l171.929-171.93c2.952-2.952,6.975-4.566,11.073-4.566c1.253,0,2.513,0.151,3.75,0.46l95.145,23.786
			c5.604,1.401,9.955,5.753,11.358,11.357l23.785,95.144c1.323,5.289-0.25,10.97-4.106,14.823L302.266,347.317
			c-3.126,3.126-3.126,8.193,0,11.319c0.038,0.038,0.077,0.077,0.114,0.114c3.126,3.126,8.193,3.126,11.319,0l100.983-100.984
			C422.53,249.92,425.734,238.357,423.041,227.589z"/>
	</g>
</g>
<g>
	<g>
		<path d="M322.029,256.652l-8.06-3.886l8.06-3.886c4.023-1.94,5.711-6.772,3.772-10.794l-15.662-32.481
			c-1.939-4.021-6.771-5.708-10.793-3.77l-19.386,9.349v-21.522c0-4.466-3.62-8.084-8.084-8.084h-36.06
			c-4.465,0-8.084,3.618-8.084,8.084v21.522l-19.386-9.349c-4.021-1.938-8.854-0.251-10.793,3.77l-15.662,32.481
			c-1.939,4.022-0.251,8.854,3.772,10.794l8.061,3.886l-8.061,3.886c-4.022,1.94-5.71,6.771-3.772,10.794l15.662,32.481
			c1.94,4.021,6.772,5.711,10.793,3.77l19.386-9.349v21.522c0,4.466,3.62,8.084,8.084,8.084h36.06c4.465,0,8.084-3.619,8.084-8.084
			v-21.522l19.386,9.349c4.019,1.936,8.853,0.25,10.793-3.77l15.662-32.481C327.739,263.424,326.051,258.592,322.029,256.652z
			 M291.845,260.049l15.88,7.657l-8.639,17.918l-23.7-11.429c-2.504-1.208-5.455-1.043-7.81,0.435
			c-2.355,1.479-3.784,4.065-3.784,6.847v26.31H243.9v-26.31c0-2.781-1.429-5.367-3.784-6.847c-2.356-1.479-5.306-1.645-7.81-0.435
			l-23.7,11.429l-8.639-17.918l15.88-7.657c2.796-1.348,4.574-4.178,4.574-7.282c0-3.104-1.777-5.934-4.574-7.282l-15.88-7.657
			l8.639-17.918l23.7,11.429c2.504,1.208,5.455,1.043,7.81-0.435s3.784-4.065,3.784-6.847v-26.31h19.891v26.31
			c0,2.781,1.429,5.367,3.784,6.847c2.355,1.48,5.305,1.643,7.81,0.435l23.7-11.429l8.639,17.918l-15.88,7.657
			c-2.796,1.348-4.574,4.178-4.574,7.282C287.272,255.871,289.049,258.7,291.845,260.049z"/>
	</g>
</g>
<g>
	<g>
		<path d="M363.194,145.385c-11.557-11.556-30.363-11.558-41.92,0c-5.599,5.599-8.681,13.043-8.681,20.96
			c0,7.917,3.083,15.362,8.681,20.961c5.779,5.778,13.369,8.667,20.961,8.667c7.591,0,15.181-2.89,20.96-8.667v-0.001
			c5.598-5.597,8.681-13.043,8.681-20.96S368.793,150.984,363.194,145.385z M351.761,175.873
			c-5.255,5.254-13.802,5.254-19.055,0.001c-2.545-2.545-3.946-5.93-3.946-9.529s1.401-6.983,3.946-9.526
			c2.627-2.628,6.077-3.941,9.527-3.941s6.901,1.314,9.528,3.941c2.545,2.544,3.946,5.927,3.946,9.526
			C355.707,169.944,354.306,173.329,351.761,175.873z"/>
	</g>
</g>
<g>
</g>
<g>
</g>
<g>
</g>
<g>
</g>
<g>
</g>
<g>
</g>
<g>
</g>
<g>
</g>
<g>
</g>
<g>
</g>
<g>
</g>
<g>
</g>
<g>
</g>
<g>
</g>
<g>
</g>
</svg>
